# xmcd
# Track frame offsets:
# 150
# 11937
# 27070
# 42800
# 60772
#
# Disc length: 1000 seconds
# Revision: 0
# Processed by: cddbd v1.5.2PL0 Copyright (c) Steve Scherf et al.
# Submitted via: VisiTrax 2.10.3.257 - For more info visit www.synapsa.com
#
DISCID=2f03e605
DTITLE=Various Artist - Audium Sampler
DYEAR=2000
DGENRE=
TTITLE0=Loretta Lynn - God's Country
TTITLE1=Ricky Van Shelton - All I have to offer you is me
TTITLE2=Daryle Singletary - I've thought of everything
TTITLE3=Kentucky Headhunters - Louisianna CoCo
TTITLE4=Billy Swan - Heartbreak Hotel
EXTD=
EXTT0=
EXTT1=
EXTT2=
EXTT3=
EXTT4=
PLAYORDER=
